<svg width="300" height="44" fill="none" xmlns="http://www.w3.org/2000/svg"><path d="M22 0c1.141 0 2.262.087 3.357.254l-.315 2.04a20.092 20.092 0 0 0-6.084 0l-.315-2.04A22.17 22.17 0 0 1 22 0Zm5.22.623-.489 2.004c2.01.49 3.901 1.283 5.621 2.33l1.071-1.763a21.868 21.868 0 0 0-6.202-2.57Zm7.782 3.628-1.22 1.664a20.053 20.053 0 0 1 4.303 4.302l1.664-1.219a22.126 22.126 0 0 0-4.747-4.747Zm5.804 6.326-1.763 1.07a19.823 19.823 0 0 1 2.33 5.622l2.004-.49a21.867 21.867 0 0 0-2.571-6.202Zm2.939 8.066-2.038.315a20.099 20.099 0 0 1 0 6.084l2.038.315a22.168 22.168 0 0 0 0-6.714Zm-4.702 13.709a19.816 19.816 0 0 0 2.33-5.62l2.004.489a21.87 21.87 0 0 1-2.571 6.202l-1.763-1.07Zm-.958 1.431 1.664 1.219a22.126 22.126 0 0 1-4.747 4.747l-1.22-1.664a20.053 20.053 0 0 0 4.303-4.302Zm-5.733 5.26 1.071 1.763a21.867 21.867 0 0 1-6.202 2.57l-.49-2.003a19.823 19.823 0 0 0 5.621-2.33Zm-7.31 2.664.315 2.038a22.165 22.165 0 0 1-6.714 0l.315-2.038a20.104 20.104 0 0 0 6.084 0Zm-7.774-.334-.489 2.004a21.851 21.851 0 0 1-4.751-1.762l-2.088.487-.47-2.008 2.822-.659.672.342a19.78 19.78 0 0 0 4.304 1.596ZM7.73 40.5l.47 2.01-3.58.835C2.24 43.899.102 41.762.657 39.38l.835-3.579 2.009.469-.835 3.579a1.238 1.238 0 0 0 1.486 1.486l3.58-.835Zm-3.824-5.97-2.008-.47.487-2.088a21.846 21.846 0 0 1-1.762-4.751l2.004-.49a19.78 19.78 0 0 0 1.596 4.305l.341.671-.658 2.822Zm-1.613-9.488-2.039.315a22.17 22.17 0 0 1 0-6.714l2.04.315a20.092 20.092 0 0 0-.001 6.084Zm.334-7.773-2.004-.49a21.87 21.87 0 0 1 2.571-6.202l1.763 1.07a19.818 19.818 0 0 0-2.33 5.622Zm3.288-7.052L4.251 8.998a22.127 22.127 0 0 1 4.747-4.747l1.22 1.664a20.053 20.053 0 0 0-4.303 4.302Zm5.733-5.26-1.071-1.763a21.87 21.87 0 0 1 6.202-2.57l.49 2.003a19.819 19.819 0 0 0-5.621 2.33Z" fill="color(display-p3 .2314 .2706 .9922)"/><path d="M39.875 22c0 9.872-8.003 17.875-17.875 17.875a17.79 17.79 0 0 1-8.634-2.22 1.138 1.138 0 0 0-.808-.117l-7.951 1.855 1.855-7.95a1.14 1.14 0 0 0-.117-.809A17.795 17.795 0 0 1 4.125 22c0-9.872 8.003-17.875 17.875-17.875S39.875 12.128 39.875 22Z" fill="color(display-p3 .2314 .2706 .9922)"/><path d="M77.936 11.901a2.744 2.744 0 0 1-2.726-2.744 2.744 2.744 0 0 1 2.726-2.745A2.752 2.752 0 0 1 80.7 9.157a2.752 2.752 0 0 1-2.764 2.744ZM75.68 35.475V14.458h4.55v21.017h-4.55Zm89.278-8.045c.245 5.357 4.286 8.496 10.716 8.496 6.636 0 10.489-3.402 10.489-8.271 0-4.944-4.267-7.012-8.158-7.97l-2.67-.697c-2.199-.563-4.887-1.522-4.887-4.004 0-2.237 2.03-3.872 5.301-3.872 3.083 0 5.207 1.428 5.489 3.891h4.549c-.131-4.587-4.079-7.914-9.963-7.914-5.771 0-10.095 3.27-10.095 8.159 0 3.91 2.745 6.26 7.369 7.482l3.234.864c3.007.79 5.169 1.73 5.169 4.023 0 2.557-2.462 4.249-5.865 4.249-3.196 0-5.79-1.41-6.016-4.437h-4.662ZM288.802 9.458h4.549v5h4.117v3.628h-4.117v11.58c0 1.598.621 2.313 2.181 2.313.451 0 1.278-.132 1.767-.226l.752 3.553c-.978.32-2.106.451-3.102.451-3.929 0-6.147-2.068-6.147-5.715V9.458Zm-8.577 26.017h-4.549V14.458h4.418v4.324c.526-2.914 2.763-4.606 5.47-4.606.545 0 1.316.056 1.767.113v4.248c-.357-.094-1.372-.244-2.237-.244-2.801 0-4.869 1.917-4.869 4.643v12.54Z" fill="#000"/><path fill-rule="evenodd" clip-rule="evenodd" d="M253.352 24.985c0 6.486 3.91 10.753 9.945 10.753 6.034 0 9.944-4.267 9.944-10.753 0-6.542-3.91-10.79-9.944-10.79-6.035 0-9.945 4.248-9.945 10.79Zm9.945 7.069c-3.572 0-5.302-3.177-5.302-7.087 0-3.948 1.73-7.088 5.302-7.088 3.609 0 5.32 3.159 5.32 7.088 0 3.91-1.711 7.087-5.32 7.087Zm-20.144 3.816c-2.857 0-4.794-1.222-6.297-4.23v11.693h-4.587V14.458h4.605v3.891c1.391-2.932 3.365-4.154 6.242-4.154 4.925 0 8.741 3.872 8.741 10.81 0 6.86-3.722 10.865-8.704 10.865Zm-6.354-10.885c0 4.192 1.824 7.031 5.132 7.031 3.384 0 5.17-3.008 5.17-7.03 0-4.005-1.748-6.937-5.17-6.937-3.346 0-5.132 2.744-5.132 6.936Zm-21.967 6.655c1.504 3.008 3.441 4.23 6.298 4.23 4.982 0 8.704-4.004 8.704-10.866 0-6.937-3.816-10.81-8.742-10.81-2.876 0-4.85 1.223-6.241 4.155v-3.891h-4.606v28.875h4.587V31.64Zm5.076.376c-3.309 0-5.132-2.838-5.132-7.03 0-4.193 1.786-6.937 5.132-6.937 3.421 0 5.17 2.932 5.17 6.936 0 4.023-1.786 7.031-5.17 7.031Z" fill="#000"/><path d="M195.911 35.738c-4.324 0-7.2-2.82-7.2-7.914V14.458h4.643v12.69c0 2.894 1.598 4.624 4.23 4.624 2.67 0 4.606-1.824 4.606-4.963V14.458h4.662v21.017h-4.418l-.037-4.154c-1.298 3.007-3.497 4.417-6.486 4.417ZM153.772 7.465v28.01h-4.549V7.465h4.549Z" fill="#000"/><path fill-rule="evenodd" clip-rule="evenodd" d="M126.26 25.004c0 6.862 3.722 10.866 8.704 10.866 2.857 0 4.793-1.222 6.297-4.23v3.835h4.587V14.458h-4.606v3.891c-1.391-2.932-3.365-4.154-6.241-4.154-4.925 0-8.741 3.872-8.741 10.81Zm9.926 7.012c-3.384 0-5.17-3.008-5.17-7.03 0-4.005 1.748-6.937 5.17-6.937 3.346 0 5.132 2.744 5.132 6.936s-1.824 7.031-5.132 7.031Z" fill="#000"/><path d="M110.346 23.124v12.351h-4.643V14.458h4.399l.056 4.117c1.279-2.933 3.44-4.38 6.486-4.38 4.324 0 7.181 2.82 7.181 7.914v13.366h-4.643v-12.69c0-2.894-1.598-4.624-4.211-4.624-2.688 0-4.625 1.824-4.625 4.963Z" fill="#000"/><path fill-rule="evenodd" clip-rule="evenodd" d="M83.492 39.01c1.09 2.706 4.098 4.774 9.098 4.774 5.565 0 9.719-2.594 9.719-8.158V14.458H97.76v3.985c-1.335-2.782-3.215-4.248-6.354-4.248-4.925 0-8.741 3.872-8.741 10.715 0 6.787 3.834 10.246 8.703 10.246 3.347 0 5.133-1.448 6.336-4.4v4.963c0 3.084-2.05 4.475-5.132 4.475-3.178 0-4.475-1.523-5.17-2.707l-3.91 1.522Zm9.098-7.577c-3.383 0-5.17-2.631-5.17-6.58 0-3.872 1.749-6.804 5.17-6.804 3.346 0 5.132 2.744 5.132 6.805 0 4.117-1.823 6.58-5.132 6.58Z" fill="#000"/><path d="M51.928 27.43c.244 5.357 4.286 8.496 10.715 8.496 6.636 0 10.49-3.402 10.49-8.271 0-4.944-4.267-7.012-8.159-7.97l-2.67-.697c-2.199-.563-4.887-1.522-4.887-4.004 0-2.237 2.03-3.872 5.301-3.872 3.083 0 5.207 1.428 5.49 3.891h4.549c-.132-4.587-4.08-7.914-9.964-7.914-5.77 0-10.094 3.27-10.094 8.159 0 3.91 2.744 6.26 7.369 7.482l3.233.864c3.008.79 5.17 1.73 5.17 4.023 0 2.557-2.463 4.249-5.866 4.249-3.195 0-5.79-1.41-6.015-4.437h-4.662Z" fill="#000"/></svg>